<svg width="380" height="400" viewBox="0 0 380 400" fill="none" xmlns="http://www.w3.org/2000/svg">
<g clip-path="url(#clip0_15_2)">
<path d="M149.252 52.1196V132.668" stroke="#BA55D3" stroke-width="15"/>
<path d="M109.925 95.2368H190.474" stroke="#BA55D3" stroke-width="15"/>
<path d="M190.474 277.182C265.053 277.182 325.511 216.724 325.511 142.145C325.511 67.5657 265.053 7.10742 190.474 7.10742C115.895 7.10742 55.4364 67.5657 55.4364 142.145C55.4364 216.724 115.895 277.182 190.474 277.182Z" stroke="#BA55D3" stroke-width="15"/>
<path d="M190.474 202.319H271.023" stroke="#BA55D3" stroke-width="15"/>
<path d="M194.226 275.707C191.694 275.08 187.804 271.279 185.468 270.024C161.978 257.4 140.285 242.319 122.672 221.819C118.119 216.52 112.608 209.99 111.376 202.717C109.61 192.293 117.152 184.342 124.987 179.025C152.315 160.484 183.234 158.465 214.263 151.962C232.22 148.199 253.098 140.949 262.301 123.294C275.046 98.8462 258.441 67.1512 242.647 48.6887C228.697 32.3832 210.126 11.4662 187.508 8.82373" stroke="#BA55D3" stroke-width="15" stroke-linecap="round"/>
<path d="M35.0244 372.563C28.5957 372.563 23.0767 371.198 18.4674 368.469C13.8581 365.679 10.3102 361.828 7.82362 356.916C5.33704 351.943 4.09375 346.211 4.09375 339.722C4.09375 333.233 5.33704 327.501 7.82362 322.528C10.3102 317.555 13.8581 313.673 18.4674 310.884C23.0767 308.094 28.5957 306.699 35.0244 306.699C42.6661 306.699 48.9129 308.609 53.7648 312.43C58.6773 316.19 61.74 321.497 62.953 328.35H50.1259C49.3374 324.893 47.6393 322.195 45.0314 320.254C42.4842 318.252 39.0879 317.252 34.8425 317.252C28.9596 317.252 24.3503 319.253 21.0146 323.256C17.679 327.259 16.0112 332.747 16.0112 339.722C16.0112 346.696 17.679 352.185 21.0146 356.188C24.3503 360.13 28.9596 362.101 34.8425 362.101C39.0879 362.101 42.4842 361.191 45.0314 359.372C47.6393 357.492 49.3374 354.914 50.1259 351.639H62.953C61.74 358.189 58.6773 363.314 53.7648 367.014C48.9129 370.713 42.6661 372.563 35.0244 372.563ZM88.5441 372.563C84.6626 372.563 81.4785 371.956 78.9919 370.744C76.5054 369.47 74.6556 367.802 73.4426 365.74C72.2296 363.678 71.6232 361.404 71.6232 358.917C71.6232 354.732 73.2607 351.336 76.5357 348.728C79.8107 346.12 84.7232 344.816 91.2732 344.816H102.735V343.725C102.735 340.632 101.856 338.357 100.097 336.902C98.3385 335.446 96.1552 334.718 93.5476 334.718C91.1823 334.718 89.1202 335.295 87.3614 336.447C85.6026 337.539 84.5109 339.176 84.0864 341.359H72.7148C73.0181 338.084 74.1097 335.234 75.9898 332.808C77.9306 330.382 80.4172 328.532 83.4496 327.259C86.482 325.924 89.8783 325.257 93.6385 325.257C100.067 325.257 105.131 326.864 108.831 330.079C112.53 333.293 114.38 337.842 114.38 343.725V371.471H104.464L103.372 364.194C102.038 366.619 100.158 368.621 97.732 370.198C95.3667 371.775 92.3043 372.563 88.5441 372.563ZM91.1823 363.466C94.5179 363.466 97.0952 362.374 98.9146 360.191C100.795 358.007 101.977 355.309 102.463 352.094H92.5469C89.4538 352.094 87.2401 352.67 85.9059 353.823C84.5716 354.914 83.9045 356.279 83.9045 357.916C83.9045 359.675 84.5716 361.04 85.9059 362.01C87.2401 362.981 88.9989 363.466 91.1823 363.466ZM90.3635 322.71V314.522L110.923 303.424V312.885L90.3635 322.71ZM125.493 371.471V305.971H137.137V371.471H125.493ZM171.141 372.563C166.532 372.563 162.468 371.562 158.951 369.561C155.433 367.56 152.643 364.77 150.581 361.191C148.58 357.613 147.579 353.519 147.579 348.91C147.579 344.301 148.58 340.207 150.581 336.629C152.643 333.051 155.433 330.261 158.951 328.259C162.468 326.258 166.532 325.257 171.141 325.257C176.903 325.257 181.755 326.773 185.697 329.806C189.639 332.778 192.156 336.902 193.248 342.178H180.966C180.36 339.995 179.147 338.297 177.327 337.084C175.569 335.81 173.476 335.173 171.05 335.173C167.836 335.173 165.107 336.386 162.863 338.812C160.619 341.238 159.497 344.604 159.497 348.91C159.497 353.216 160.619 356.582 162.863 359.008C165.107 361.434 167.836 362.647 171.05 362.647C173.476 362.647 175.569 362.04 177.327 360.828C179.147 359.615 180.36 357.886 180.966 355.642H193.248C192.156 360.737 189.639 364.83 185.697 367.923C181.755 371.016 176.903 372.563 171.141 372.563ZM220.504 372.563C214.864 372.563 210.497 370.804 207.404 367.287C204.372 363.769 202.856 358.614 202.856 351.821V326.349H214.409V350.73C214.409 354.611 215.197 357.583 216.774 359.645C218.351 361.707 220.838 362.738 224.234 362.738C227.448 362.738 230.087 361.586 232.149 359.281C234.271 356.976 235.333 353.762 235.333 349.638V326.349H246.977V371.471H236.697L235.788 363.83C234.393 366.498 232.361 368.621 229.692 370.198C227.085 371.775 224.022 372.563 220.504 372.563ZM258.931 371.471V305.971H270.575V371.471H258.931ZM304.125 372.563C299.758 372.563 295.816 371.562 292.299 369.561C288.842 367.56 286.082 364.8 284.02 361.282C282.019 357.704 281.018 353.58 281.018 348.91C281.018 344.24 282.049 340.146 284.111 336.629C286.173 333.051 288.933 330.261 292.39 328.259C295.907 326.258 299.849 325.257 304.216 325.257C308.522 325.257 312.404 326.258 315.861 328.259C319.378 330.261 322.138 333.051 324.139 336.629C326.201 340.146 327.232 344.24 327.232 348.91C327.232 353.58 326.201 357.704 324.139 361.282C322.138 364.8 319.378 367.56 315.861 369.561C312.343 371.562 308.431 372.563 304.125 372.563ZM304.125 362.465C307.158 362.465 309.796 361.343 312.04 359.099C314.284 356.794 315.406 353.398 315.406 348.91C315.406 344.422 314.284 341.056 312.04 338.812C309.796 336.508 307.188 335.355 304.216 335.355C301.123 335.355 298.454 336.508 296.21 338.812C294.027 341.056 292.935 344.422 292.935 348.91C292.935 353.398 294.027 356.794 296.21 359.099C298.454 361.343 301.093 362.465 304.125 362.465ZM356.293 372.563C352.29 372.563 348.773 371.926 345.74 370.653C342.708 369.318 340.282 367.499 338.462 365.194C336.643 362.89 335.551 360.221 335.187 357.189H346.923C347.287 358.947 348.257 360.464 349.834 361.737C351.472 362.95 353.564 363.557 356.111 363.557C358.658 363.557 360.508 363.041 361.66 362.01C362.873 360.979 363.48 359.797 363.48 358.462C363.48 356.521 362.631 355.218 360.933 354.55C359.235 353.823 356.869 353.125 353.837 352.458C351.896 352.034 349.925 351.518 347.924 350.911C345.922 350.305 344.072 349.547 342.374 348.637C340.737 347.667 339.403 346.454 338.372 344.998C337.34 343.482 336.825 341.632 336.825 339.449C336.825 335.446 338.402 332.08 341.556 329.351C344.77 326.622 349.258 325.257 355.02 325.257C360.357 325.257 364.602 326.501 367.756 328.987C370.97 331.474 372.88 334.9 373.487 339.267H362.479C361.812 335.931 359.295 334.264 354.928 334.264C352.745 334.264 351.047 334.688 349.834 335.537C348.682 336.386 348.106 337.448 348.106 338.721C348.106 340.055 348.985 341.117 350.744 341.905C352.503 342.694 354.838 343.421 357.749 344.089C360.902 344.816 363.783 345.635 366.391 346.545C369.06 347.394 371.182 348.698 372.759 350.457C374.336 352.155 375.124 354.611 375.124 357.825C375.185 360.615 374.457 363.132 372.941 365.376C371.425 367.62 369.242 369.379 366.391 370.653C363.541 371.926 360.175 372.563 356.293 372.563Z" fill="url(#paint0_linear_15_2)"/>
</g>
<defs>
<linearGradient id="paint0_linear_15_2" x1="190" y1="281.446" x2="190" y2="399.9" gradientUnits="userSpaceOnUse">
<stop stop-color="#BA55D3"/>
<stop offset="1" stop-color="#571F7D"/>
</linearGradient>
<clipPath id="clip0_15_2">
<rect width="380" height="399.9" fill="white"/>
</clipPath>
</defs>
</svg>
